<mxfile host="app.diagrams.net" modified="2024-04-04T11:25:05.376Z" agent="Mozilla/5.0 (Macintosh; Intel Mac OS X 10_15_7) AppleWebKit/537.36 (KHTML, like Gecko) Chrome/123.0.0.0 Safari/537.36" etag="xGwSit0p4OShxmh-Ao_U" version="24.0.7" type="google">
  <diagram name="PÃ¡gina-1" id="LiZpnKPzrquES09W8EV0">
    <mxGraphModel grid="1" page="1" gridSize="10" guides="1" tooltips="1" connect="1" arrows="1" fold="1" pageScale="1" pageWidth="827" pageHeight="1169" math="0" shadow="0">
      <root>
        <mxCell id="0" />
        <mxCell id="1" parent="0" />
        <mxCell id="GcNLCYy3afP6832vEnWA-14" style="edgeStyle=orthogonalEdgeStyle;rounded=0;orthogonalLoop=1;jettySize=auto;html=1;exitX=0.5;exitY=1;exitDx=0;exitDy=0;entryX=0.5;entryY=0;entryDx=0;entryDy=0;" edge="1" parent="1" source="GcNLCYy3afP6832vEnWA-1" target="GcNLCYy3afP6832vEnWA-2">
          <mxGeometry relative="1" as="geometry" />
        </mxCell>
        <mxCell id="GcNLCYy3afP6832vEnWA-15" style="edgeStyle=orthogonalEdgeStyle;rounded=0;orthogonalLoop=1;jettySize=auto;html=1;exitX=0.5;exitY=1;exitDx=0;exitDy=0;entryX=0.5;entryY=0;entryDx=0;entryDy=0;" edge="1" parent="1" source="GcNLCYy3afP6832vEnWA-1" target="GcNLCYy3afP6832vEnWA-3">
          <mxGeometry relative="1" as="geometry" />
        </mxCell>
        <mxCell id="GcNLCYy3afP6832vEnWA-21" style="edgeStyle=orthogonalEdgeStyle;rounded=0;orthogonalLoop=1;jettySize=auto;html=1;exitX=0.5;exitY=1;exitDx=0;exitDy=0;" edge="1" parent="1" source="GcNLCYy3afP6832vEnWA-1" target="GcNLCYy3afP6832vEnWA-5">
          <mxGeometry relative="1" as="geometry" />
        </mxCell>
        <mxCell id="GcNLCYy3afP6832vEnWA-22" style="edgeStyle=orthogonalEdgeStyle;rounded=0;orthogonalLoop=1;jettySize=auto;html=1;exitX=0.5;exitY=1;exitDx=0;exitDy=0;entryX=0.5;entryY=0;entryDx=0;entryDy=0;" edge="1" parent="1" source="GcNLCYy3afP6832vEnWA-1" target="GcNLCYy3afP6832vEnWA-4">
          <mxGeometry relative="1" as="geometry" />
        </mxCell>
        <mxCell id="GcNLCYy3afP6832vEnWA-1" value="Formula One Event" style="rounded=0;whiteSpace=wrap;html=1;" vertex="1" parent="1">
          <mxGeometry x="460" y="380" width="120" height="60" as="geometry" />
        </mxCell>
        <mxCell id="GcNLCYy3afP6832vEnWA-16" style="edgeStyle=orthogonalEdgeStyle;rounded=0;orthogonalLoop=1;jettySize=auto;html=1;exitX=0.5;exitY=1;exitDx=0;exitDy=0;" edge="1" parent="1" source="GcNLCYy3afP6832vEnWA-2" target="GcNLCYy3afP6832vEnWA-7">
          <mxGeometry relative="1" as="geometry" />
        </mxCell>
        <mxCell id="GcNLCYy3afP6832vEnWA-17" style="edgeStyle=orthogonalEdgeStyle;rounded=0;orthogonalLoop=1;jettySize=auto;html=1;exitX=0.5;exitY=1;exitDx=0;exitDy=0;" edge="1" parent="1" source="GcNLCYy3afP6832vEnWA-2" target="GcNLCYy3afP6832vEnWA-6">
          <mxGeometry relative="1" as="geometry" />
        </mxCell>
        <mxCell id="GcNLCYy3afP6832vEnWA-2" value="Race" style="rounded=0;whiteSpace=wrap;html=1;" vertex="1" parent="1">
          <mxGeometry x="120" y="520" width="120" height="60" as="geometry" />
        </mxCell>
        <mxCell id="GcNLCYy3afP6832vEnWA-3" value="Clasification" style="rounded=0;whiteSpace=wrap;html=1;" vertex="1" parent="1">
          <mxGeometry x="320" y="520" width="120" height="60" as="geometry" />
        </mxCell>
        <mxCell id="GcNLCYy3afP6832vEnWA-23" style="edgeStyle=orthogonalEdgeStyle;rounded=0;orthogonalLoop=1;jettySize=auto;html=1;exitX=0.5;exitY=1;exitDx=0;exitDy=0;entryX=0.5;entryY=0;entryDx=0;entryDy=0;" edge="1" parent="1" source="GcNLCYy3afP6832vEnWA-4" target="GcNLCYy3afP6832vEnWA-11">
          <mxGeometry relative="1" as="geometry" />
        </mxCell>
        <mxCell id="GcNLCYy3afP6832vEnWA-24" style="edgeStyle=orthogonalEdgeStyle;rounded=0;orthogonalLoop=1;jettySize=auto;html=1;exitX=0.5;exitY=1;exitDx=0;exitDy=0;entryX=0.5;entryY=0;entryDx=0;entryDy=0;" edge="1" parent="1" source="GcNLCYy3afP6832vEnWA-4" target="GcNLCYy3afP6832vEnWA-13">
          <mxGeometry relative="1" as="geometry" />
        </mxCell>
        <mxCell id="GcNLCYy3afP6832vEnWA-25" style="edgeStyle=orthogonalEdgeStyle;rounded=0;orthogonalLoop=1;jettySize=auto;html=1;exitX=0.5;exitY=1;exitDx=0;exitDy=0;entryX=0.5;entryY=0;entryDx=0;entryDy=0;" edge="1" parent="1" source="GcNLCYy3afP6832vEnWA-4" target="GcNLCYy3afP6832vEnWA-12">
          <mxGeometry relative="1" as="geometry" />
        </mxCell>
        <mxCell id="GcNLCYy3afP6832vEnWA-4" value="Special Events" style="rounded=0;whiteSpace=wrap;html=1;" vertex="1" parent="1">
          <mxGeometry x="1121" y="520" width="120" height="60" as="geometry" />
        </mxCell>
        <mxCell id="GcNLCYy3afP6832vEnWA-18" style="edgeStyle=orthogonalEdgeStyle;rounded=0;orthogonalLoop=1;jettySize=auto;html=1;exitX=0.5;exitY=1;exitDx=0;exitDy=0;" edge="1" parent="1" source="GcNLCYy3afP6832vEnWA-5" target="GcNLCYy3afP6832vEnWA-8">
          <mxGeometry relative="1" as="geometry" />
        </mxCell>
        <mxCell id="GcNLCYy3afP6832vEnWA-19" style="edgeStyle=orthogonalEdgeStyle;rounded=0;orthogonalLoop=1;jettySize=auto;html=1;exitX=0.5;exitY=1;exitDx=0;exitDy=0;entryX=0.5;entryY=0;entryDx=0;entryDy=0;" edge="1" parent="1" source="GcNLCYy3afP6832vEnWA-5" target="GcNLCYy3afP6832vEnWA-10">
          <mxGeometry relative="1" as="geometry" />
        </mxCell>
        <mxCell id="GcNLCYy3afP6832vEnWA-20" style="edgeStyle=orthogonalEdgeStyle;rounded=0;orthogonalLoop=1;jettySize=auto;html=1;exitX=0.5;exitY=1;exitDx=0;exitDy=0;entryX=0.5;entryY=0;entryDx=0;entryDy=0;" edge="1" parent="1" source="GcNLCYy3afP6832vEnWA-5" target="GcNLCYy3afP6832vEnWA-9">
          <mxGeometry relative="1" as="geometry" />
        </mxCell>
        <mxCell id="GcNLCYy3afP6832vEnWA-5" value="Practice" style="rounded=0;whiteSpace=wrap;html=1;" vertex="1" parent="1">
          <mxGeometry x="600" y="520" width="120" height="60" as="geometry" />
        </mxCell>
        <mxCell id="GcNLCYy3afP6832vEnWA-6" value="Exibition" style="rounded=0;whiteSpace=wrap;html=1;" vertex="1" parent="1">
          <mxGeometry x="200" y="660" width="120" height="60" as="geometry" />
        </mxCell>
        <mxCell id="GcNLCYy3afP6832vEnWA-7" value="Gran Prix" style="rounded=0;whiteSpace=wrap;html=1;" vertex="1" parent="1">
          <mxGeometry x="40" y="660" width="120" height="60" as="geometry" />
        </mxCell>
        <mxCell id="GcNLCYy3afP6832vEnWA-8" value="Free 1" style="rounded=0;whiteSpace=wrap;html=1;" vertex="1" parent="1">
          <mxGeometry x="440" y="660" width="120" height="60" as="geometry" />
        </mxCell>
        <mxCell id="GcNLCYy3afP6832vEnWA-9" value="Free 2" style="rounded=0;whiteSpace=wrap;html=1;" vertex="1" parent="1">
          <mxGeometry x="600" y="660" width="120" height="60" as="geometry" />
        </mxCell>
        <mxCell id="GcNLCYy3afP6832vEnWA-10" value="Free 3" style="rounded=0;whiteSpace=wrap;html=1;" vertex="1" parent="1">
          <mxGeometry x="760" y="660" width="120" height="60" as="geometry" />
        </mxCell>
        <mxCell id="GcNLCYy3afP6832vEnWA-11" value="Car Launches" style="rounded=0;whiteSpace=wrap;html=1;" vertex="1" parent="1">
          <mxGeometry x="960" y="660" width="120" height="60" as="geometry" />
        </mxCell>
        <mxCell id="GcNLCYy3afP6832vEnWA-12" value="Pre-season tests" style="rounded=0;whiteSpace=wrap;html=1;" vertex="1" parent="1">
          <mxGeometry x="1120" y="660" width="120" height="60" as="geometry" />
        </mxCell>
        <mxCell id="GcNLCYy3afP6832vEnWA-13" value="Mid-season tests" style="rounded=0;whiteSpace=wrap;html=1;" vertex="1" parent="1">
          <mxGeometry x="1280" y="660" width="120" height="60" as="geometry" />
        </mxCell>
      </root>
    </mxGraphModel>
  </diagram>
</mxfile>
